<svg width="512" height="512" viewBox="0 0 512 512" fill="none" xmlns="http://www.w3.org/2000/svg">
<rect width="512" height="512" rx="96" fill="#0A0A0A"/>
<path d="M195.784 162.27L259.693 326.908C262.148 333.22 264.865 337.603 267.846 340.058C271.002 342.337 273.807 343.565 276.262 343.74V349C271.002 348.649 264.778 348.474 257.589 348.474C250.576 348.299 243.475 348.211 236.286 348.211C228.221 348.211 220.594 348.299 213.405 348.474C206.216 348.474 200.518 348.649 196.31 349V343.74C205.252 343.389 210.863 341.899 213.142 339.269C215.597 336.464 215.071 330.59 211.564 321.648L166.854 199.353L171.588 192.515L131.612 296.663C127.755 306.306 125.388 314.196 124.511 320.333C123.81 326.47 124.248 331.204 125.826 334.535C127.579 337.866 130.297 340.233 133.979 341.636C137.836 342.863 142.395 343.565 147.655 343.74V349C141.869 348.649 136.346 348.474 131.086 348.474C125.826 348.299 120.478 348.211 115.043 348.211C111.186 348.211 107.504 348.299 103.997 348.474C100.666 348.474 97.685 348.649 95.055 349V343.74C98.737 343.039 102.507 340.672 106.364 336.639C110.221 332.606 113.991 325.768 117.673 316.125L177.637 162.27C180.442 162.445 183.423 162.533 186.579 162.533C189.91 162.533 192.979 162.445 195.784 162.27ZM214.194 273.256V278.516H135.82L138.45 273.256H214.194ZM319.655 350.841C311.765 350.841 305.19 349.351 299.93 346.37C294.67 343.389 290.813 339.444 288.358 334.535C285.903 329.45 284.676 323.927 284.676 317.966C284.676 310.427 286.342 304.29 289.673 299.556C293.18 294.822 297.651 290.965 303.086 287.984C308.521 285.003 314.22 282.549 320.181 280.62C326.318 278.691 332.104 276.85 337.539 275.097C343.15 273.168 347.621 270.977 350.952 268.522C354.459 265.892 356.212 262.561 356.212 258.528V238.014C356.212 233.455 355.423 229.423 353.845 225.916C352.442 222.234 350.163 219.429 347.007 217.5C344.026 215.571 340.081 214.607 335.172 214.607C331.665 214.607 328.159 215.133 324.652 216.185C321.145 217.062 318.252 218.64 315.973 220.919C320.882 222.672 324.652 225.39 327.282 229.072C330.087 232.579 331.49 236.611 331.49 241.17C331.49 247.131 329.386 251.865 325.178 255.372C321.145 258.879 316.324 260.632 310.713 260.632C304.401 260.632 299.579 258.703 296.248 254.846C293.092 250.813 291.514 245.992 291.514 240.381C291.514 235.296 292.741 231.088 295.196 227.757C297.826 224.426 301.42 221.27 305.979 218.289C310.888 215.484 316.762 213.292 323.6 211.714C330.613 210.136 338.153 209.347 346.218 209.347C354.283 209.347 361.56 210.224 368.047 211.977C374.534 213.555 379.97 216.536 384.353 220.919C388.386 224.952 391.016 229.949 392.243 235.91C393.47 241.696 394.084 249.06 394.084 258.002V329.538C394.084 333.921 394.522 336.99 395.399 338.743C396.276 340.321 397.766 341.11 399.87 341.11C401.448 341.11 402.938 340.672 404.341 339.795C405.919 338.918 407.585 337.866 409.338 336.639L411.968 341.11C408.286 344.266 403.99 346.721 399.081 348.474C394.347 350.052 388.999 350.841 383.038 350.841C376.551 350.841 371.378 349.964 367.521 348.211C363.664 346.282 360.858 343.74 359.105 340.584C357.527 337.428 356.738 333.746 356.738 329.538C352.53 336.201 347.445 341.461 341.484 345.318C335.523 349 328.246 350.841 319.655 350.841ZM338.328 334.009C341.835 334.009 344.991 333.22 347.796 331.642C350.777 329.889 353.582 327.083 356.212 323.226V269.311C354.634 271.941 352.442 274.308 349.637 276.412C346.832 278.516 343.851 280.708 340.695 282.987C337.539 285.091 334.471 287.458 331.49 290.088C328.685 292.718 326.405 295.962 324.652 299.819C322.899 303.676 322.022 308.323 322.022 313.758C322.022 320.596 323.512 325.681 326.493 329.012C329.474 332.343 333.419 334.009 338.328 334.009Z" fill="#FAFAFA"/>
</svg>
