<svg width="100%" height="100%" viewBox="0 0 512 512" fill="currentColor" xmlns="http://www.w3.org/2000/svg">
<path d="M351.747 318.226C349.292 321.826 346.674 324.445 343.892 326.081C341.274 327.554 338.328 328.29 335.056 328.29C330.474 328.29 326.791 326.735 324.009 323.626C321.227 320.517 319.836 315.771 319.836 309.389C319.836 304.316 320.655 299.979 322.291 296.379C323.927 292.779 326.055 289.751 328.673 287.297C331.455 284.842 334.319 282.634 337.265 280.67C340.21 278.543 342.992 276.497 345.61 274.533C348.229 272.569 350.274 270.36 351.747 267.905V318.226Z"/>
<path d="M200.229 271.587H150.506L175.973 205.237L200.229 271.587Z"/>
<path fill-rule="evenodd" clip-rule="evenodd" d="M512 512H0V0H512V512ZM342.419 211.938C334.892 211.938 327.855 212.675 321.31 214.147C314.927 215.62 309.444 217.666 304.862 220.284C300.608 223.066 297.253 226.012 294.799 229.121C292.508 232.23 291.362 236.158 291.362 240.903C291.362 246.14 292.835 250.641 295.78 254.404C298.89 258.004 303.39 259.805 309.281 259.805C314.518 259.805 319.018 258.168 322.782 254.896C326.709 251.623 328.673 247.204 328.673 241.641C328.673 237.386 327.364 233.621 324.746 230.349C322.291 226.912 318.772 224.376 314.19 222.739C316.318 220.612 319.018 219.139 322.291 218.32C325.564 217.339 328.837 216.848 332.109 216.848C336.691 216.848 340.373 217.748 343.155 219.548C346.101 221.348 348.229 223.967 349.538 227.403C351.011 230.676 351.747 234.44 351.747 238.694V257.841C351.747 261.605 350.111 264.714 346.838 267.169C343.729 269.46 339.555 271.506 334.318 273.306C329.246 274.942 323.845 276.66 318.118 278.46C312.554 280.26 307.236 282.551 302.163 285.333C297.09 288.115 292.916 291.715 289.644 296.134C286.534 300.552 284.98 306.28 284.979 313.316C284.979 318.88 286.125 324.036 288.416 328.781C290.707 333.363 294.308 337.045 299.217 339.827C304.126 342.609 310.263 344 317.627 344C325.646 344 332.437 342.281 338.001 338.845C343.565 335.245 348.311 330.336 352.238 324.117C352.238 328.045 352.974 331.481 354.447 334.427C356.084 337.372 358.702 339.745 362.302 341.545C365.902 343.181 370.73 344 376.785 344C382.349 344 387.34 343.264 391.758 341.791C396.34 340.155 400.35 337.864 403.786 334.918L401.331 330.745C399.695 331.89 398.141 332.872 396.668 333.69C395.359 334.509 393.967 334.918 392.494 334.918C390.531 334.918 389.139 334.182 388.321 332.709C387.503 331.073 387.095 328.208 387.095 324.117V257.35C387.095 249.004 386.521 242.131 385.376 236.73C384.23 231.167 381.775 226.503 378.012 222.739C373.921 218.648 368.848 215.866 362.793 214.394C356.738 212.757 349.947 211.938 342.419 211.938ZM202.014 168C199.396 168.164 196.532 168.245 193.423 168.245C190.477 168.245 187.695 168.164 185.077 168L129.11 311.599C125.674 320.599 122.155 326.981 118.555 330.745C114.955 334.509 111.436 336.718 108 337.372V342.281C110.455 341.954 113.237 341.791 116.346 341.791C119.619 341.627 123.055 341.545 126.655 341.545C131.728 341.545 136.72 341.627 141.629 341.791C146.538 341.791 151.693 341.954 157.094 342.281V337.372C152.184 337.208 147.929 336.554 144.329 335.408C140.893 334.099 138.356 331.89 136.72 328.781C135.247 325.672 134.838 321.253 135.492 315.525C136.31 309.798 138.52 302.434 142.12 293.434L148.621 276.496H202.024L216.742 316.753C220.015 325.099 220.506 330.581 218.215 333.199C216.087 335.654 210.851 337.045 202.505 337.372V342.281C206.432 341.954 211.751 341.791 218.46 341.791C225.169 341.627 232.288 341.545 239.815 341.545C246.525 341.545 253.153 341.627 259.699 341.791C266.408 341.791 272.218 341.954 277.127 342.281V337.372C274.836 337.208 272.217 336.063 269.271 333.936C266.49 331.644 263.953 327.553 261.662 321.662L202.014 168Z"/>
</svg>
