<svg width="100%" height="100%" viewBox="0 0 16 16" fill="currentColor" xmlns="http://www.w3.org/2000/svg">
<g clip-path="url(#clip0_992_377)">
<path fill-rule="evenodd" clip-rule="evenodd" d="M8 0C8.36819 0 8.66667 0.298477 8.66667 0.666667V2C8.66667 2.36819 8.36819 2.66667 8 2.66667C7.63181 2.66667 7.33333 2.36819 7.33333 2V0.666667C7.33333 0.298477 7.63181 0 8 0ZM8 5.33333C6.52724 5.33333 5.33333 6.52724 5.33333 8C5.33333 9.47276 6.52724 10.6667 8 10.6667C9.47276 10.6667 10.6667 9.47276 10.6667 8C10.6667 6.52724 9.47276 5.33333 8 5.33333ZM4 8C4 5.79086 5.79086 4 8 4C10.2091 4 12 5.79086 12 8C12 10.2091 10.2091 12 8 12C5.79086 12 4 10.2091 4 8ZM8.66667 14C8.66667 13.6318 8.36819 13.3333 8 13.3333C7.63181 13.3333 7.33333 13.6318 7.33333 14V15.3333C7.33333 15.7015 7.63181 16 8 16C8.36819 16 8.66667 15.7015 8.66667 15.3333V14ZM2.34193 2.34191C2.60228 2.08156 3.02439 2.08156 3.28474 2.34191L4.23141 3.28858C4.49175 3.54893 4.49175 3.97104 4.23141 4.23139C3.97106 4.49173 3.54895 4.49173 3.2886 4.23139L2.34193 3.28472C2.08158 3.02437 2.08158 2.60226 2.34193 2.34191ZM12.7114 11.7687C12.451 11.5083 12.0289 11.5083 11.7686 11.7687C11.5082 12.029 11.5082 12.4511 11.7686 12.7115L12.7153 13.6581C12.9756 13.9185 13.3977 13.9185 13.6581 13.6581C13.9184 13.3978 13.9184 12.9757 13.6581 12.7153L12.7114 11.7687ZM0 8C0 7.63181 0.298477 7.33333 0.666667 7.33333H2C2.36819 7.33333 2.66667 7.63181 2.66667 8C2.66667 8.36819 2.36819 8.66667 2 8.66667H0.666667C0.298477 8.66667 0 8.36819 0 8ZM14 7.33333C13.6318 7.33333 13.3333 7.63181 13.3333 8C13.3333 8.36819 13.6318 8.66667 14 8.66667H15.3333C15.7015 8.66667 16 8.36819 16 8C16 7.63181 15.7015 7.33333 15.3333 7.33333H14ZM4.23141 11.7687C4.49175 12.029 4.49175 12.4511 4.23141 12.7115L3.28474 13.6581C3.02439 13.9185 2.60228 13.9185 2.34193 13.6581C2.08158 13.3978 2.08158 12.9757 2.34193 12.7153L3.2886 11.7687C3.54895 11.5083 3.97106 11.5083 4.23141 11.7687ZM13.6581 3.28472C13.9184 3.02437 13.9184 2.60226 13.6581 2.34191C13.3977 2.08156 12.9756 2.08156 12.7153 2.34191L11.7686 3.28858C11.5082 3.54893 11.5082 3.97104 11.7686 4.23139C12.0289 4.49173 12.451 4.49173 12.7114 4.23139L13.6581 3.28472Z"/>
</g>
<defs>
<clipPath id="clip0_992_377">
<rect width="100%" height="100%"/>
</clipPath>
</defs>
</svg>
