<svg width="100%" height="100%" viewBox="0 0 16 16" fill="currentColor" xmlns="http://www.w3.org/2000/svg">
<path d="M14.0004 3.33301C14.0002 2.96497 13.7015 2.66699 13.3334 2.66699H2.66638C2.29845 2.66717 2.00054 2.96508 2.00037 3.33301V10C2.00037 10.3681 2.29834 10.6668 2.66638 10.667H13.3334C13.7016 10.667 14.0004 10.3682 14.0004 10V3.33301ZM15.3334 10C15.3334 11.1046 14.4379 12 13.3334 12H8.66638V13.333H10.6664L10.8011 13.3467C11.1049 13.4089 11.3334 13.6778 11.3334 14C11.3334 14.3222 11.1049 14.5911 10.8011 14.6533L10.6664 14.667H5.33337C4.96518 14.667 4.66638 14.3682 4.66638 14C4.66638 13.6318 4.96518 13.333 5.33337 13.333H7.33337V12H2.66638C1.56196 11.9998 0.666382 11.1045 0.666382 10V3.33301C0.666558 2.2287 1.56207 1.33318 2.66638 1.33301H13.3334C14.4378 1.33301 15.3332 2.22859 15.3334 3.33301V10Z"/>
</svg>
